<svg width="220" height="291" viewBox="0 0 220 291" fill="none" xmlns="http://www.w3.org/2000/svg"><path d="M22.33 291c-7.323 0-13.05-2.683-17.11-7.902l-.073-.073C1.74 278.385 0 272.368 0 265.118c0-7.322 1.74-13.412 5.147-17.979 3.915-5.292 9.715-8.047 17.182-8.047 5.655 0 10.295 1.595 13.847 4.712v-3.842h8.41v49.805h-8.41v-3.48c-3.552 3.19-8.192 4.713-13.847 4.713zm0-43.571c-4.713 0-8.12 1.667-10.513 5.147l-.072.073c-2.248 3.117-3.408 7.322-3.408 12.614 0 5.293 1.088 9.57 3.335 12.687 2.392 3.48 5.872 5.148 10.585 5.148 4.712 0 8.12-1.668 10.512-5.148 2.247-3.117 3.334-7.394 3.334-12.687 0-5.22-1.087-9.497-3.334-12.687-2.32-3.48-5.728-5.147-10.44-5.147zm39.075 42.483h-8.41V228h8.41v11.962h8.844v8.192h-8.844v41.758zM94.246 291c-7.25 0-12.832-2.755-16.674-8.192-3.19-4.64-4.785-10.585-4.785-17.69 0-7.104 1.595-13.049 4.785-17.616 3.842-5.51 9.424-8.337 16.674-8.337 7.105 0 12.615 2.537 16.384 7.467 3.335 4.277 5.003 10.004 5.003 17.037v4.422H81.269c.29 3.842 1.378 7.177 3.262 9.787 2.393 3.407 5.583 5.075 9.788 5.075 5.944 0 9.787-2.61 11.889-8.192l1.16-3.045 7.25 3.915-.87 2.319c-1.305 3.48-3.408 6.38-6.235 8.628-3.77 2.972-8.192 4.422-13.267 4.422zm-12.542-31.101h25.302c-.363-3.19-1.378-5.873-2.973-8.047-2.175-3.045-5.22-4.495-9.207-4.495-4.205 0-7.395 1.45-9.787 4.35-1.595 2.247-2.755 4.929-3.335 8.192zm50.458 30.013h-8.409v-49.805h8.409v2.9c2.973-1.813 6.815-2.683 11.527-2.683l5.728.073-5.728 8.047h-1.45c-2.465 0-3.335.218-3.48.363l-.217.072c-1.377.435-2.972 1.595-4.64 3.48-1.16 1.377-1.74 3.19-1.74 5.51v32.043zm28.274 0h-8.41v-49.805h8.41v2.9c2.972-1.813 6.815-2.683 11.527-2.683l5.727.073-5.727 8.047h-1.45c-2.465 0-3.335.218-3.48.363l-.217.072c-1.378.435-2.973 1.595-4.64 3.48-1.16 1.377-1.74 3.19-1.74 5.51v32.043zM197.337 291c-7.322 0-13.049-2.683-17.109-7.902l-.073-.073c-3.407-4.64-5.147-10.657-5.147-17.907 0-7.322 1.74-13.412 5.147-17.979 3.915-5.292 9.715-8.047 17.182-8.047 5.655 0 10.295 1.595 13.847 4.712v-3.842h8.41v49.805h-8.483v-3.48c-3.479 3.19-8.192 4.713-13.774 4.713zm0-43.571c-4.712 0-8.12 1.667-10.512 5.147l-.073.073c-2.247 3.117-3.407 7.322-3.407 12.614 0 5.293 1.088 9.57 3.335 12.687 2.392 3.48 5.872 5.148 10.585 5.148 4.712 0 8.119-1.668 10.512-5.148 2.247-3.117 3.334-7.394 3.334-12.687 0-5.22-1.087-9.497-3.334-12.687-2.32-3.48-5.728-5.147-10.44-5.147z" fill="#DBD6D6"/><path d="M119.933 197.518c35.417-3.817 64.755-27.853 76.349-60.231 3.535-9.826 5.373-20.36 5.302-31.388-.141-24.106-9.614-46.022-24.955-62.281-10.18-7.988-22.41-13.361-35.771-15.2-3.322-.423-6.716-.706-10.109-.706h-.495c-24.036.141-45.385 11.735-58.888 29.55-9.543 12.583-15.199 28.348-15.057 45.315 0 1.201.07 2.332.141 3.534.212-29.267 23.894-53.09 53.232-53.232 3.818 0 7.565.353 11.17 1.131 8.554 2.404 16.472 6.292 23.47 11.31 12.23 8.838 21.703 21.421 26.793 35.984 2.616 7.494 4.03 15.482 4.1 23.894.142 17.038-5.514 32.732-15.057 45.315-9.897 13.008-23.966 22.693-40.225 27.005z" fill="url(#paint0_linear)"/><path d="M110.601 198.084c3.181 0 6.292 0 9.332-.495 16.542-3.04 30.327-13.997 40.224-27.005 9.544-12.583 15.199-28.348 15.058-45.315-.071-8.341-1.485-16.401-4.1-23.894-5.019-14.563-14.492-27.076-26.793-35.983 11.664 9.756 19.158 24.39 19.299 40.861.071 13.22-4.665 25.379-12.512 34.781a74.631 74.631 0 01-22.34 15.835c-9.331 4.242-19.653 6.716-30.54 6.716-3.605 0-7.14-.212-10.603-.707-28.066-3.817-51.183-23.258-60.231-49.344-2.616-7.493-4.03-15.482-4.1-23.894a72.09 72.09 0 012.19-18.451c-4.665 11.028-7.14 23.187-7.069 35.983.142 17.815 5.302 34.428 14.21 48.425 16.33 25.662 45.173 42.699 77.975 42.487z" fill="url(#paint1_linear)"/><path d="M130.183 27.782c3.605 0 7.14.212 10.604.707 13.361 1.838 25.662 7.21 35.771 15.2-16.684-17.674-40.366-28.702-66.593-28.702h-.566c-1.555 0-3.04.07-4.595.141-35.842 1.98-68.573 23.612-79.318 56.06-1.909 5.797-2.262 12.089-2.192 18.451.071 8.342 1.485 16.401 4.1 23.895 9.05 26.086 32.166 45.526 60.232 49.344 3.463.495 6.998.707 10.604.707 10.886-.071 21.278-2.475 30.539-6.716a54.698 54.698 0 01-18.38 3.393c-21.986.141-41.002-13.008-49.344-31.883-2.616-6.928-4.171-14.351-4.595-22.056-.071-1.131-.071-2.333-.142-3.535-.07-17.037 5.514-32.731 15.058-45.314 13.502-17.957 34.781-29.55 58.817-29.692z" fill="url(#paint2_linear)"/><path d="M109.965 213C51.289 213 3.5 165.211 3.5 106.535 3.5 47.789 51.289 0 109.965 0 168.711 0 216.5 47.789 216.5 106.535 216.5 165.211 168.711 213 109.965 213zm0-212.01C51.784.99 4.49 48.284 4.49 106.535c0 58.181 47.364 105.546 105.545 105.546 58.181 0 105.546-47.365 105.546-105.546C215.51 48.284 168.216.99 109.965.99z" fill="#4D433B"/><defs><linearGradient id="paint0_linear" x1="94.008" y1="53.594" x2="181.012" y2="160.747" gradientUnits="userSpaceOnUse"><stop stop-color="#74BE44"/><stop offset=".366" stop-color="#5A9C3D"/><stop offset="1" stop-color="#316431"/></linearGradient><linearGradient id="paint1_linear" x1="159.47" y1="104.288" x2="31.282" y2="149.154" gradientUnits="userSpaceOnUse"><stop stop-color="#74BE44"/><stop offset=".366" stop-color="#5A9C3D"/><stop offset="1" stop-color="#316431"/></linearGradient><linearGradient id="paint2_linear" x1="59.905" y1="142.61" x2="133.156" y2="14.422" gradientUnits="userSpaceOnUse"><stop stop-color="#74BE44"/><stop offset=".366" stop-color="#5A9C3D"/><stop offset="1" stop-color="#316431"/></linearGradient></defs></svg>